<svg width="1000" height="1000" viewBox="0 0 1000 1000" fill="none" xmlns="http://www.w3.org/2000/svg">
<rect width="1000" height="1000" fill="white"/>
<circle cx="500" cy="500" r="500" fill="#F97676"/>
<path fill-rule="evenodd" clip-rule="evenodd" d="M184.691 377.052C187.492 376.687 190.183 378.269 191.201 380.881L237.357 499.254L280.756 380.994C281.73 378.341 284.421 376.704 287.249 377.045C290.077 377.385 292.294 379.614 292.597 382.421L310.965 552.287C311.325 555.618 308.891 558.608 305.529 558.965C302.167 559.322 299.15 556.911 298.79 553.579L283.236 409.739L243.284 518.606C242.412 520.983 240.144 522.574 237.592 522.599C235.04 522.625 232.739 521.078 231.82 518.719L188.886 408.609L173.21 553.579C172.85 556.911 169.833 559.322 166.471 558.965C163.109 558.608 160.675 555.618 161.035 552.287L179.403 382.421C179.704 379.636 181.889 377.418 184.691 377.052Z" fill="white"/>
<path fill-rule="evenodd" clip-rule="evenodd" d="M366 546.867C384.63 546.867 399.733 531.928 399.733 513.5C399.733 495.072 384.63 480.133 366 480.133C347.37 480.133 332.267 495.072 332.267 513.5C332.267 531.928 347.37 546.867 366 546.867ZM366 559C391.405 559 412 538.629 412 513.5C412 488.371 391.405 468 366 468C340.595 468 320 488.371 320 513.5C320 538.629 340.595 559 366 559Z" fill="white"/>
<path fill-rule="evenodd" clip-rule="evenodd" d="M406 468C409.314 468 412 470.716 412 474.067V552.933C412 556.284 409.314 559 406 559C402.686 559 400 556.284 400 552.933V474.067C400 470.716 402.686 468 406 468Z" fill="white"/>
<path fill-rule="evenodd" clip-rule="evenodd" d="M464 559C460.686 559 458 556.266 458 552.893V394.107C458 390.734 460.686 388 464 388C467.314 388 470 390.734 470 394.107V552.893C470 556.266 467.314 559 464 559Z" fill="white"/>
<path fill-rule="evenodd" clip-rule="evenodd" d="M509 474C509 477.314 506.186 480 502.714 480L427.286 480C423.814 480 421 477.314 421 474C421 470.686 423.814 468 427.286 468L502.714 468C506.186 468 509 470.686 509 474Z" fill="white"/>
<path fill-rule="evenodd" clip-rule="evenodd" d="M548.5 546.867C566.928 546.867 581.867 531.928 581.867 513.5C581.867 495.072 566.928 480.133 548.5 480.133C530.072 480.133 515.133 495.072 515.133 513.5C515.133 531.928 530.072 546.867 548.5 546.867ZM548.5 559C573.629 559 594 538.629 594 513.5C594 488.371 573.629 468 548.5 468C523.371 468 503 488.371 503 513.5C503 538.629 523.371 559 548.5 559Z" fill="white"/>
<path fill-rule="evenodd" clip-rule="evenodd" d="M588.5 468C591.538 468 594 470.716 594 474.067V552.933C594 556.284 591.538 559 588.5 559C585.462 559 583 556.284 583 552.933V474.067C583 470.716 585.462 468 588.5 468Z" fill="white"/>
<path fill-rule="evenodd" clip-rule="evenodd" d="M615.5 559C612.462 559 610 556.284 610 552.933V474.067C610 470.716 612.462 468 615.5 468C618.538 468 621 470.716 621 474.067V552.933C621 556.284 618.538 559 615.5 559Z" fill="white"/>
<path fill-rule="evenodd" clip-rule="evenodd" d="M635.341 483.682C628.285 488.114 623.454 494.613 622.139 503.554C621.624 507.062 618.504 509.466 615.172 508.923C611.84 508.38 609.557 505.096 610.073 501.587C612.027 488.294 619.406 478.721 629.085 472.641C638.623 466.65 650.404 464 661.895 464C665.267 464 668 466.878 668 470.428C668 473.979 665.267 476.857 661.895 476.857C652.018 476.857 642.538 479.161 635.341 483.682Z" fill="white"/>
<path fill-rule="evenodd" clip-rule="evenodd" d="M708.5 546.867C727.333 546.867 742.6 531.928 742.6 513.5C742.6 495.072 727.333 480.133 708.5 480.133C689.667 480.133 674.4 495.072 674.4 513.5C674.4 531.928 689.667 546.867 708.5 546.867ZM708.5 559C734.181 559 755 538.629 755 513.5C755 488.371 734.181 468 708.5 468C682.819 468 662 488.371 662 513.5C662 538.629 682.819 559 708.5 559Z" fill="white"/>
<path fill-rule="evenodd" clip-rule="evenodd" d="M808.5 546.867C826.928 546.867 841.867 531.928 841.867 513.5C841.867 495.072 826.928 480.133 808.5 480.133C790.072 480.133 775.133 495.072 775.133 513.5C775.133 531.928 790.072 546.867 808.5 546.867ZM808.5 559C833.629 559 854 538.629 854 513.5C854 488.371 833.629 468 808.5 468C783.371 468 763 488.371 763 513.5C763 538.629 783.371 559 808.5 559Z" fill="white"/>
<path fill-rule="evenodd" clip-rule="evenodd" d="M848.5 468C851.538 468 854 470.716 854 474.067V552.933C854 556.284 851.538 559 848.5 559C845.462 559 843 556.284 843 552.933V474.067C843 470.716 845.462 468 848.5 468Z" fill="white"/>
</svg>
